# AST/ASF file generated using VICON BodyLanguage
# -----------------------------------------------
:version 1.10
:name VICON
:units
  mass 1.0
  length 0.45
  angle deg
:documentation
   .ast/.asf automatically generated from VICON data using
   VICON BodyBuilder and BodyLanguage model FoxedUp or BRILLIANT.MOD
:root
   order TX TY TZ RX RY RZ
   axis XYZ
   position 0 0 0  
   orientation 0 0 0 
:bonedata
  begin
     id 1 
     name lhipjoint
     direction 0.570549 -0.739093 0.358072 
     length 2.41801 
     axis 0 0 0  XYZ
  end
  begin
     id 2 
     name lfemur
     direction 0.34202 -0.939693 0  
     length 7.44434  
     axis 0 0 20  XYZ
    dof rx ry rz
    limits (-160.0 20.0)
           (-70.0 70.0)
           (-60.0 70.0)
  end
  begin
     id 3 
     name ltibia
     direction 0.34202 -0.939693 0   
     length 7.60047   
     axis 0 0 20   XYZ
    dof rx
    limits (-10.0 170.0)
  end
  begin
     id 4 
     name lfoot
     direction 0.0909041 -0.249757 0.964032   
     length 2.03437   
     axis -90 7.62852e-016 20   XYZ
    dof rx rz
    limits (-45.0 90.0)
           (-70.0 20.0)
  end
  begin
     id 5 
     name ltoes
     direction 1.53547e-011 -4.2174e-011 1   
     length 1.02054   
     axis -90 7.62852e-016 20   XYZ
    dof rx
    limits (-90.0 20.0)
  end
  begin
     id 6 
     name rhipjoint
     direction -0.558096 -0.746754 0.361784   
     length 2.3932  
     axis 0 0 0  XYZ 
  end
  begin
     id 7 
     name rfemur
     direction -0.34202 -0.939693 0   
     length 7.3886   
     axis 0 0 -20   XYZ
    dof rx ry rz
    limits (-160.0 20.0)
           (-70.0 70.0)
           (-70.0 60.0)
  end
  begin
     id 8 
     name rtibia
     direction -0.34202 -0.939693 0   
     length 7.4839   
     axis 0 0 -20   XYZ
    dof rx
    limits (-10.0 170.0)
 end
 begin
     id 9 
     name rfoot
     direction -0.114619 -0.314914 0.942174   
     length 2.25127  
     axis -90 -7.62852e-016 -20   XYZ
    dof rx rz
    limits (-45.0 90.0)
           (-20.0 70.0)
  end
  begin
     id 10 
     name rtoes
     direction -1.53518e-011 -4.21881e-011 1   
     length 1.11821   
     axis -90 -7.62852e-016 -20   XYZ
    dof rx
    limits (-90.0 20.0)
  end
  begin
     id 11 
     name lowerback
     direction -0.00902269 0.996426 -0.0839821   
     length 2.25052   
     axis 0 0 0   XYZ
    dof rx ry rz
    limits (-20.0 45.0)
           (-30.0 30.0)
           (-30.0 30.0)
  end
  begin
     id 12 
     name upperback
     direction 0.0370973 0.999169 -0.0168941   
     length 2.24876   
     axis 0 0 0   XYZ
    dof rx ry rz
    limits (-20.0 45.0)
           (-30.0 30.0)
           (-30.0 30.0)
  end
  begin
     id 13 
     name thorax
     direction 0.0402726 0.998931 0.0227027   
     length 2.26408   
     axis 0 0 0   XYZ
    dof rx ry rz
    limits (-20.0 45.0)
           (-30.0 30.0)
           (-30.0 30.0)
  end
  begin
     id 14 
     name lowerneck
     direction -0.0733697 0.98508 0.155675   
     length 1.58204   
     axis 0 0 0   XYZ
    dof rx ry rz
    limits (-20.0 45.0)
           (-30.0 30.0)
           (-30.0 30.0)
  end
  begin
     id 15 
     name upperneck
     direction 0.0426554 0.993501 -0.105526   
     length 1.61222   
     axis 0 0 0   XYZ
    dof rx ry rz
    limits (-20.0 45.0)
           (-30.0 30.0)
           (-30.0 30.0)
  end
  begin
     id 16
     name head
     direction 0.020792 0.998384 -0.0528868  
     length 1.61527  
     axis 0 0 0   XYZ
    dof rx ry rz
    limits (-20.0 45.0)
           (-30.0 30.0)
           (-30.0 30.0)
  end
  begin
     id 17 
     name lclavicle
     direction 0.967109 0.155462 -0.201325  
     length 3.59357  
     axis 0 0 0   XYZ
    dof ry rz
    limits (-20.0 10.0)
           (0.0 20.0)
  end
  begin
     id 18 
     name lhumerus
     direction 1 -4.48968e-011 2.38195e-027   
     length 5.38154   
     axis 180 -30 -90   XYZ
    dof rx ry rz
    limits (-60.0 90.0)
           (-90.0 90.0)
           (-90.0 90.0)
  end
  begin
     id 19
     name lradius
     direction 1 -4.48961e-011 4.85371e-027   
     length 3.33312   
     axis 180 -30 -90   XYZ
    dof rx
    limits (-10.0 170.0)
  end
  begin
     id 20
     name lwrist
     direction 1 -4.48961e-011 4.76515e-027   
     length 1.66656   
     axis -3.27502e-015 90 90   XYZ
    dof ry
    limits (-180.0 0.0)
 end
  begin
     id 21 
     name lhand
     direction 1 -4.48951e-011 9.53074e-027   
     length 0.710789   
     axis -6.08098e-015 90 90   XYZ
    dof rx rz
    limits (-90.0 90.0)
           (-45.0 45.0)
  end
  begin
     id 22 
     name lfingers
     direction 1 -4.48953e-011 1.90613e-026   
     length 0.573057   
     axis -1.21619e-014 90 90   XYZ
    dof rx
    limits (0.0 90.0)
  end
  begin
     id 23
     name lthumb
     direction 0.707107 -6.34973e-011 0.707107   
     length 0.822798   
     axis -90 45 -9.86923e-015   XYZ
    dof rx rz
    limits (-45.0 45.0)
           (-45.0 45.0)
  end
  begin
     id 24 
     name rclavicle
     direction -0.9585 0.265289 -0.104398   
     length 3.42039  
     axis 0 0 0   XYZ 
    dof ry rz
    limits (-10.0 20.0)
           (-20.0 0.0)
  end
  begin
     id 25 
     name rhumerus
     direction -1 -4.48977e-011 2.21478e-027  
     length 5.16954   
     axis 180 30 90   XYZ
    dof rx ry rz
    limits (-90.0 60.0)
           (-90.0 90.0)
           (-90.0 90.0)
  end
  begin
     id 26 
     name rradius
     direction -1 -4.48967e-011 5.63677e-027   
     length 3.38287   
     axis 180 30 90   XYZ
    dof rx
    limits (-10.0 170.0)
  end
  begin
     id 27 
     name rwrist
     direction -1 -4.48967e-011 4.76501e-027   
     length 1.69144   
     axis -3.27502e-015 -90 -90   XYZ
    dof ry
    limits (-180.0 0.0)
  end
  begin
     id 28
     name rhand
     direction -1 -4.48902e-011 9.53292e-027   
     length 0.817967   
     axis -6.08098e-015 -90 -90   XYZ
    dof rx rz
    limits (-90.0 90.0)
           (-45.0 45.0)
  end
  begin
     id 29
     name rfingers
     direction -1 -4.49012e-011 1.90561e-026   
     length 0.659466   
     axis -1.21619e-014 -90 -90   XYZ
    dof rx
    limits (0.0 90.0)
  end
  begin
     id 30
     name rthumb
     direction -0.707107 -6.34944e-011 0.707107   
     length 0.946865   
     axis -90 -45 9.86923e-015   XYZ
    dof rx rz
    limits (-45.0 45.0)
           (-45.0 45.0)
  end
:hierarchy
  begin
    root lhipjoint rhipjoint lowerback
    lhipjoint lfemur
    lfemur ltibia
    ltibia lfoot
    lfoot ltoes
    rhipjoint rfemur
    rfemur rtibia
    rtibia rfoot
    rfoot rtoes
    lowerback upperback
    upperback thorax
    thorax lowerneck lclavicle rclavicle
    lowerneck upperneck
    upperneck head
    lclavicle lhumerus
    lhumerus lradius
    lradius lwrist
    lwrist lhand lthumb
    lhand lfingers
    rclavicle rhumerus
    rhumerus rradius
    rradius rwrist
    rwrist rhand rthumb
    rhand rfingers
  end

#!OML:ASF F:\twosubjects\two\wednesday\Session 1\Justin1.ASF
:FULLY-SPECIFIED
:DEGREES
82
root 5.32897 15.4827 -19.7482 -205.291 62.5865 -226.833
lowerback -0.241281 -3.99614 -22.623
upperback -0.949697 -5.16465 -0.737874
thorax 1.01534 -2.51362 11.6788
lowerneck -11.8004 -11.0711 -17.9247
upperneck 5.69169 -13.884 17.7789
head 6.23436 -6.25879 7.1458
rclavicle -3.00165e-014 -9.54166e-015
rhumerus -60.8977 -7.02445 -47.1866
rradius 99.5292
rwrist -74.0719
rhand -26.2121 35.2027
rfingers 7.12502
rthumb 0.340911 5.22318
lclavicle -3.00165e-014 -9.54166e-015
lhumerus -50.4216 14.348 59.8093
lradius 55.6142
lwrist 7.42118
lhand -8.64815 37.6842
lfingers 7.12502
lthumb 17.2851 66.9355
rfemur -73.0816 -14.7658 18.5376
rtibia 61.0471
rfoot -6.25515 -14.9909
rtoes 27.5212
lfemur -26.2576 8.2617 -28.0847
ltibia 44.1389
lfoot -26.4543 2.74773
ltoes -43.1582
83
root 5.50085 15.3822 -19.7932 -206.465 63.3043 -227.468
lowerback -0.0870671 -4.02009 -21.8902
upperback -1.02837 -5.24959 -0.891829
thorax 0.794718 -2.5263 11.1148
lowerneck -11.3372 -10.8855 -17.8862
upperneck 5.79771 -13.7485 18.0051
head 6.18274 -6.20309 7.25642
rclavicle -1.88845e-014 -1.66979e-014
rhumerus -60.7011 -5.04099 -47.4279
rradius 99.3353
rwrist -73.8133
rhand -27.2851 37.4687
rfingers 7.12502
rthumb -0.69548 7.49011
lclavicle -1.88845e-014 -1.66979e-014
lhumerus -50.9024 14.8543 59.0788
lradius 54.1066
lwrist 7.58438
lhand -8.3362 37.7881
lfingers 7.12502
lthumb 17.5853 67.0128
rfemur -72.9443 -13.9739 19.4568
rtibia 62.5839
rfoot -8.02119 -15.8805
rtoes 28.2401
lfemur -25.6136 8.81848 -27.6566
ltibia 45.5799
lfoot -26.6792 3.22164
ltoes -42.8213
84
root 5.67668 15.3431 -19.8216 -207.812 64.1687 -227.968
lowerback 0.424614 -3.97175 -20.9369
upperback -1.18958 -5.33911 -1.05635
thorax 0.258957 -2.50828 10.4554
lowerneck -10.7317 -10.6391 -17.8334
upperneck 5.96045 -13.5428 18.0962
head 6.0972 -6.12786 7.33525
rclavicle -7.21588e-014 -1.08934e-013
rhumerus -61.4367 -4.41356 -47.343
rradius 99.7811
rwrist -72.5185
rhand -27.8687 37.8605
rfingers 7.12502
rthumb -1.25909 7.88442
lclavicle -7.21588e-014 -1.08934e-013
lhumerus -51.5985 15.5058 58.062
lradius 52.5369
lwrist 7.55239
lhand -7.77342 37.8665
lfingers 7.12502
lthumb 18.1268 67.0418
rfemur -71.6791 -12.4258 19.4956
rtibia 63.6279
rfoot -10.6064 -16.969
rtoes 31.6288
lfemur -24.6501 9.21771 -26.7836
ltibia 47.0651
lfoot -26.6144 1.92082
ltoes -39.2702
85
root 5.85467 15.2966 -19.8486 -209.459 65.2426 -228.449
lowerback 1.06191 -3.91211 -19.8522
upperback -1.18647 -5.40901 -1.29691
thorax -0.191382 -2.50692 9.64863
lowerneck -10.358 -10.3154 -17.2638
upperneck 6.06789 -13.2418 18.0692
head 5.97053 -5.98586 7.29536
rclavicle -3.22031e-014 -4.92986e-014
rhumerus -61.8408 -2.846 -47.7615
rradius 100.291
rwrist -71.9619
rhand -29.0417 38.155
rfingers 7.12502
rthumb -2.39196 8.1887
lclavicle -3.22031e-014 -4.92986e-014
lhumerus -52.2858 16.3717 56.7076
lradius 50.921
lwrist 7.48889
lhand -7.10866 37.6648
lfingers 7.12502
lthumb 18.7663 66.7796
rfemur -70.0413 -11.1185 19.8924
rtibia 64.2733
rfoot -12.0853 -17.9961
rtoes 29.7826
lfemur -23.3052 9.50806 -25.4859
ltibia 48.6304
lfoot -26.2601 0.81694
ltoes -39.0637
86
root 6.03545 15.2335 -19.878 -211.421 66.4866 -228.995
lowerback 1.64899 -3.57153 -18.8331
upperback -0.828774 -5.05263 -1.27798
thorax -0.323002 -2.35844 9.16274
lowerneck -10.4313 -10.3536 -17.1349
upperneck 6.02598 -13.2953 18.0588
head 5.97032 -6.00518 7.26017
rclavicle 3.55825e-014 -9.54166e-015
rhumerus -62.0687 -2.04383 -47.3663
rradius 100.934
rwrist -70.9778
rhand -30.3449 37.317
rfingers 7.12502
rthumb -3.65054 7.36849
lclavicle 3.55825e-014 -9.54166e-015
lhumerus -52.2541 17.3369 56.3494
lradius 49.1897
lwrist 7.65984
lhand -7.18579 37.3601
lfingers 7.12502
lthumb 18.6921 66.482
rfemur -68.4909 -10.3929 21.0505
rtibia 64.8117
rfoot -11.0402 -18.8464
rtoes 17.852
lfemur -21.8975 9.83109 -23.9642
ltibia 50.7392
lfoot -25.1177 0.89437
ltoes -44.9072
87
root 6.2221 15.256 -19.8817 -213.34 67.7168 -229.488
lowerback 2.313 -3.13952 -17.826
upperback -0.52662 -4.59076 -1.08563
thorax -0.566348 -2.14552 8.873
lowerneck -10.5168 -10.7196 -17.6667
upperneck 6.03338 -13.7287 18.1544
head 6.11116 -6.21966 7.30858
rclavicle 7.2954e-014 4.21423e-014
rhumerus -62.4987 -1.74806 -46.2952
rradius 101.77
rwrist -70.0917
rhand -31.0923 34.9206
rfingers 7.12502
rthumb -4.37227 4.9857
lclavicle 7.2954e-014 4.21423e-014
lhumerus -52.0954 18.3292 56.4511
lradius 47.4063
lwrist 7.77038
lhand -7.6813 37.5073
lfingers 7.12502
lthumb 18.2155 66.6744
rfemur -65.3922 -7.65349 19.8687
rtibia 64.7097
rfoot -14.1564 -18.9236
rtoes 25.1922
lfemur -20.749 10.0198 -22.2936
ltibia 52.8695
lfoot -23.156 0.0657767
ltoes -49.2356
88
root 6.40683 15.2022 -19.9012 -215.174 68.8784 -229.862
lowerback 3.1418 -3.00712 -16.705
upperback -0.420406 -4.55354 -1.05794
thorax -1.01251 -2.11031 8.34223
lowerneck -10.1166 -10.6465 -18.0939
upperneck 6.03771 -13.6708 18.4811
head 6.0928 -6.20704 7.51326
rclavicle -1.74931e-014 3.97569e-014
rhumerus -63.0624 -1.39064 -45.7618
rradius 102.801
rwrist -69.3252
rhand -30.7903 31.5749
rfingers 7.12502
rthumb -4.08067 1.63422
lclavicle -1.74931e-014 3.97569e-014
lhumerus -52.6771 19.1543 55.8616
lradius 45.9974
lwrist 8.2273
lhand -8.19823 38.6235
lfingers 7.12502
lthumb 17.7181 67.8363
rfemur -63.2592 -7.52024 20.566
rtibia 64.857
rfoot -16.0483 -16.7404
rtoes 29.182
lfemur -20.0499 9.93589 -20.4528
ltibia 55.6321
lfoot -20.4305 -2.8658
ltoes -49.1987
89
root 6.60472 15.2617 -19.8961 -217.227 70.087 -230.308
lowerback 3.99151 -3.15557 -15.5914
upperback -0.209439 -4.8573 -1.04925
thorax -1.27243 -2.26592 7.79161
lowerneck -10.2818 -10.4569 -18.2013
upperneck 6.40316 -13.4337 18.6623
head 6.21213 -6.07288 7.6249
rclavicle 3.26007e-014 -3.26007e-014
rhumerus -63.0994 -0.906728 -45.6947
rradius 103.768
rwrist -68.3731
rhand -29.6568 27.9385
rfingers 7.12502
rthumb -2.98601 -2.0203
lclavicle 3.26007e-014 -3.26007e-014
lhumerus -53.5541 20.1543 54.9144
lradius 44.6054
lwrist 8.98531
lhand -8.91018 39.328
lfingers 7.12502
lthumb 17.0329 68.6013
rfemur -60.0934 -5.49583 20.7888
rtibia 64.3986
rfoot -16.8997 -18.0458
rtoes 25.9725
lfemur -19.128 9.8402 -18.5407
ltibia 58.0891
lfoot -15.8931 -6.41019
ltoes -46.323
90
root 6.79745 15.2443 -19.9034 -219.527 71.3631 -230.99
lowerback 4.75587 -3.65447 -15.7161
upperback 0.218277 -5.63349 -0.15244
thorax -0.947069 -2.715 8.8665
lowerneck -11.4642 -10.1373 -18.0913
upperneck 6.84369 -12.7391 17.6077
head 6.32062 -5.73294 7.30933
rclavicle -2.18663e-014 -3.97569e-015
rhumerus -61.1048 0.370648 -45.0078
rradius 104.295
rwrist -67.5083
rhand -28.1477 24.2913
rfingers 7.12502
rthumb -1.52853 -5.68295
lclavicle -2.18663e-014 -3.97569e-015
lhumerus -55.0978 22.9884 54.2594
lradius 43.1353
lwrist 9.18522
lhand -9.53444 38.811
lfingers 7.12502
lthumb 16.4319 68.1351
rfemur -57.2814 -4.87364 21.7378
rtibia 64.212
rfoot -18.9444 -17.3446
rtoes 29.0137
lfemur -18.7514 9.97721 -16.5305
ltibia 60.9785
lfoot -9.48739 -9.49519
ltoes -41.5212
